<?xml version="1.0" encoding="UTF-8" ?>
<svg version="1.1" width="26" height="26" xmlns="http://www.w3.org/2000/svg" shape-rendering="crispEdges">
<rect x="8" y="0" width="1" height="1" fill="#35DB0F" />
<rect x="19" y="0" width="1" height="1" fill="#35DB0F" />
<rect x="8" y="1" width="1" height="1" fill="#35DB0F" />
<rect x="9" y="1" width="1" height="1" fill="#35DB0F" />
<rect x="18" y="1" width="1" height="1" fill="#35DB0F" />
<rect x="19" y="1" width="1" height="1" fill="#35DB0F" />
<rect x="8" y="2" width="1" height="1" fill="#1FA800" />
<rect x="9" y="2" width="1" height="1" fill="#35DB0F" />
<rect x="10" y="2" width="1" height="1" fill="#35DB0F" />
<rect x="17" y="2" width="1" height="1" fill="#35DB0F" />
<rect x="18" y="2" width="1" height="1" fill="#35DB0F" />
<rect x="19" y="2" width="1" height="1" fill="#1FA800" />
<rect x="8" y="3" width="1" height="1" fill="#1FA800" />
<rect x="9" y="3" width="1" height="1" fill="#35DB0F" />
<rect x="10" y="3" width="1" height="1" fill="#35DB0F" />
<rect x="17" y="3" width="1" height="1" fill="#35DB0F" />
<rect x="18" y="3" width="1" height="1" fill="#35DB0F" />
<rect x="19" y="3" width="1" height="1" fill="#1FA800" />
<rect x="8" y="4" width="1" height="1" fill="#136600" />
<rect x="9" y="4" width="1" height="1" fill="#35DB0F" />
<rect x="10" y="4" width="1" height="1" fill="#35DB0F" />
<rect x="11" y="4" width="1" height="1" fill="#1FA800" />
<rect x="16" y="4" width="1" height="1" fill="#1FA800" />
<rect x="17" y="4" width="1" height="1" fill="#35DB0F" />
<rect x="18" y="4" width="1" height="1" fill="#35DB0F" />
<rect x="19" y="4" width="1" height="1" fill="#136600" />
<rect x="8" y="5" width="1" height="1" fill="#0E4D00" />
<rect x="9" y="5" width="1" height="1" fill="#35DB0F" />
<rect x="10" y="5" width="1" height="1" fill="#1FA800" />
<rect x="11" y="5" width="1" height="1" fill="#1FA800" />
<rect x="12" y="5" width="1" height="1" fill="#35DB0F" />
<rect x="13" y="5" width="1" height="1" fill="#1FA800" />
<rect x="14" y="5" width="1" height="1" fill="#1FA800" />
<rect x="15" y="5" width="1" height="1" fill="#1FA800" />
<rect x="16" y="5" width="1" height="1" fill="#35DB0F" />
<rect x="17" y="5" width="1" height="1" fill="#1FA800" />
<rect x="18" y="5" width="1" height="1" fill="#35DB0F" />
<rect x="19" y="5" width="1" height="1" fill="#0E4D00" />
<rect x="8" y="6" width="1" height="1" fill="#1FA800" />
<rect x="9" y="6" width="1" height="1" fill="#1FA800" />
<rect x="10" y="6" width="1" height="1" fill="#1FA800" />
<rect x="11" y="6" width="1" height="1" fill="#1FA800" />
<rect x="12" y="6" width="1" height="1" fill="#58FF33" />
<rect x="13" y="6" width="1" height="1" fill="#35DB0F" />
<rect x="14" y="6" width="1" height="1" fill="#1FA800" />
<rect x="15" y="6" width="1" height="1" fill="#35DB0F" />
<rect x="16" y="6" width="1" height="1" fill="#58FF33" />
<rect x="17" y="6" width="1" height="1" fill="#1FA800" />
<rect x="18" y="6" width="1" height="1" fill="#1FA800" />
<rect x="19" y="6" width="1" height="1" fill="#1FA800" />
<rect x="8" y="7" width="1" height="1" fill="#1FA800" />
<rect x="9" y="7" width="1" height="1" fill="#1FA800" />
<rect x="10" y="7" width="1" height="1" fill="#1FA800" />
<rect x="11" y="7" width="1" height="1" fill="#1FA800" />
<rect x="12" y="7" width="1" height="1" fill="#1FA800" />
<rect x="13" y="7" width="1" height="1" fill="#58FF33" />
<rect x="14" y="7" width="1" height="1" fill="#35DB0F" />
<rect x="15" y="7" width="1" height="1" fill="#58FF33" />
<rect x="16" y="7" width="1" height="1" fill="#1FA800" />
<rect x="17" y="7" width="1" height="1" fill="#1FA800" />
<rect x="18" y="7" width="1" height="1" fill="#1FA800" />
<rect x="19" y="7" width="1" height="1" fill="#1FA800" />
<rect x="8" y="8" width="1" height="1" fill="#1FA800" />
<rect x="9" y="8" width="1" height="1" fill="#1FA800" />
<rect x="10" y="8" width="1" height="1" fill="#1FA800" />
<rect x="11" y="8" width="1" height="1" fill="#1FA800" />
<rect x="12" y="8" width="1" height="1" fill="#1FA800" />
<rect x="13" y="8" width="1" height="1" fill="#58FF33" />
<rect x="14" y="8" width="1" height="1" fill="#58FF33" />
<rect x="15" y="8" width="1" height="1" fill="#58FF33" />
<rect x="16" y="8" width="1" height="1" fill="#1FA800" />
<rect x="17" y="8" width="1" height="1" fill="#1FA800" />
<rect x="18" y="8" width="1" height="1" fill="#1FA800" />
<rect x="19" y="8" width="1" height="1" fill="#1FA800" />
<rect x="7" y="9" width="1" height="1" fill="#0E4D00" />
<rect x="8" y="9" width="1" height="1" fill="#0E4D00" />
<rect x="9" y="9" width="1" height="1" fill="#1FA800" />
<rect x="10" y="9" width="1" height="1" fill="#1FA800" />
<rect x="11" y="9" width="1" height="1" fill="#58FF33" />
<rect x="12" y="9" width="1" height="1" fill="#0E4D00" />
<rect x="13" y="9" width="1" height="1" fill="#1FA800" />
<rect x="14" y="9" width="1" height="1" fill="#58FF33" />
<rect x="15" y="9" width="1" height="1" fill="#1FA800" />
<rect x="16" y="9" width="1" height="1" fill="#0E4D00" />
<rect x="17" y="9" width="1" height="1" fill="#58FF33" />
<rect x="18" y="9" width="1" height="1" fill="#1FA800" />
<rect x="19" y="9" width="1" height="1" fill="#0E4D00" />
<rect x="20" y="9" width="1" height="1" fill="#0E4D00" />
<rect x="8" y="10" width="1" height="1" fill="#1FA800" />
<rect x="9" y="10" width="1" height="1" fill="#1FA800" />
<rect x="10" y="10" width="1" height="1" fill="#1FA800" />
<rect x="11" y="10" width="1" height="1" fill="#0E4D00" />
<rect x="12" y="10" width="1" height="1" fill="#58FF33" />
<rect x="13" y="10" width="1" height="1" fill="#136600" />
<rect x="14" y="10" width="1" height="1" fill="#136600" />
<rect x="15" y="10" width="1" height="1" fill="#136600" />
<rect x="16" y="10" width="1" height="1" fill="#58FF33" />
<rect x="17" y="10" width="1" height="1" fill="#0E4D00" />
<rect x="18" y="10" width="1" height="1" fill="#1FA800" />
<rect x="19" y="10" width="1" height="1" fill="#1FA800" />
<rect x="6" y="11" width="1" height="1" fill="#0E4D00" />
<rect x="7" y="11" width="1" height="1" fill="#0E4D00" />
<rect x="8" y="11" width="1" height="1" fill="#0E4D00" />
<rect x="9" y="11" width="1" height="1" fill="#0E4D00" />
<rect x="10" y="11" width="1" height="1" fill="#1FA800" />
<rect x="11" y="11" width="1" height="1" fill="#1FA800" />
<rect x="12" y="11" width="1" height="1" fill="#1FA800" />
<rect x="13" y="11" width="1" height="1" fill="#1FA800" />
<rect x="14" y="11" width="1" height="1" fill="#136600" />
<rect x="15" y="11" width="1" height="1" fill="#1FA800" />
<rect x="16" y="11" width="1" height="1" fill="#1FA800" />
<rect x="17" y="11" width="1" height="1" fill="#1FA800" />
<rect x="18" y="11" width="1" height="1" fill="#1FA800" />
<rect x="19" y="11" width="1" height="1" fill="#0E4D00" />
<rect x="20" y="11" width="1" height="1" fill="#0E4D00" />
<rect x="21" y="11" width="1" height="1" fill="#0E4D00" />
<rect x="10" y="12" width="1" height="1" fill="#1FA800" />
<rect x="11" y="12" width="1" height="1" fill="#1FA800" />
<rect x="12" y="12" width="1" height="1" fill="#1FA800" />
<rect x="13" y="12" width="1" height="1" fill="#0E4D00" />
<rect x="14" y="12" width="1" height="1" fill="#1FA800" />
<rect x="15" y="12" width="1" height="1" fill="#0E4D00" />
<rect x="16" y="12" width="1" height="1" fill="#1FA800" />
<rect x="17" y="12" width="1" height="1" fill="#1FA800" />
</svg>