<?xml version="1.0" encoding="UTF-8" ?>
<svg version="1.1" width="16" height="2" xmlns="http://www.w3.org/2000/svg" shape-rendering="crispEdges">
<rect x="0" y="0" width="1" height="1" fill="#35DB0F" />
<rect x="1" y="0" width="1" height="1" fill="#35DB0F" />
<rect x="2" y="0" width="1" height="1" fill="#35DB0F" />
<rect x="3" y="0" width="1" height="1" fill="#35DB0F" />
<rect x="4" y="0" width="1" height="1" fill="#35DB0F" />
<rect x="5" y="0" width="1" height="1" fill="#35DB0F" />
<rect x="6" y="0" width="1" height="1" fill="#35DB0F" />
<rect x="7" y="0" width="1" height="1" fill="#35DB0F" />
<rect x="8" y="0" width="1" height="1" fill="#35DB0F" />
<rect x="9" y="0" width="1" height="1" fill="#35DB0F" />
<rect x="10" y="0" width="1" height="1" fill="#35DB0F" />
<rect x="11" y="0" width="1" height="1" fill="#35DB0F" />
<rect x="12" y="0" width="1" height="1" fill="#35DB0F" />
<rect x="13" y="0" width="1" height="1" fill="#35DB0F" />
<rect x="14" y="0" width="1" height="1" fill="#35DB0F" />
<rect x="15" y="0" width="1" height="1" fill="#35DB0F" />
<rect x="0" y="1" width="1" height="1" fill="#1FA800" />
<rect x="1" y="1" width="1" height="1" fill="#1FA800" />
<rect x="2" y="1" width="1" height="1" fill="#1FA800" />
<rect x="3" y="1" width="1" height="1" fill="#1FA800" />
<rect x="4" y="1" width="1" height="1" fill="#1FA800" />
<rect x="5" y="1" width="1" height="1" fill="#1FA800" />
<rect x="6" y="1" width="1" height="1" fill="#1FA800" />
<rect x="7" y="1" width="1" height="1" fill="#1FA800" />
<rect x="8" y="1" width="1" height="1" fill="#1FA800" />
<rect x="9" y="1" width="1" height="1" fill="#1FA800" />
<rect x="10" y="1" width="1" height="1" fill="#1FA800" />
<rect x="11" y="1" width="1" height="1" fill="#1FA800" />
<rect x="12" y="1" width="1" height="1" fill="#1FA800" />
<rect x="13" y="1" width="1" height="1" fill="#1FA800" />
<rect x="14" y="1" width="1" height="1" fill="#1FA800" />
<rect x="15" y="1" width="1" height="1" fill="#1FA800" />
</svg>