<?xml version="1.0" encoding="UTF-8" ?>
<svg version="1.1" width="25" height="6" xmlns="http://www.w3.org/2000/svg" shape-rendering="crispEdges">
<rect x="0" y="0" width="1" height="1" fill="#35DB0F" />
<rect x="1" y="0" width="1" height="1" fill="#35DB0F" />
<rect x="2" y="0" width="1" height="1" fill="#35DB0F" />
<rect x="3" y="0" width="1" height="1" fill="#35DB0F" />
<rect x="4" y="0" width="1" height="1" fill="#35DB0F" />
<rect x="5" y="0" width="1" height="1" fill="#35DB0F" />
<rect x="6" y="0" width="1" height="1" fill="#35DB0F" />
<rect x="7" y="0" width="1" height="1" fill="#35DB0F" />
<rect x="8" y="0" width="1" height="1" fill="#35DB0F" />
<rect x="9" y="0" width="1" height="1" fill="#35DB0F" />
<rect x="10" y="0" width="1" height="1" fill="#35DB0F" />
<rect x="11" y="0" width="1" height="1" fill="#35DB0F" />
<rect x="12" y="0" width="1" height="1" fill="#35DB0F" />
<rect x="13" y="0" width="1" height="1" fill="#35DB0F" />
<rect x="14" y="0" width="1" height="1" fill="#35DB0F" />
<rect x="15" y="0" width="1" height="1" fill="#35DB0F" />
<rect x="16" y="0" width="1" height="1" fill="#35DB0F" />
<rect x="17" y="0" width="1" height="1" fill="#35DB0F" />
<rect x="18" y="0" width="1" height="1" fill="#35DB0F" />
<rect x="19" y="0" width="1" height="1" fill="#35DB0F" />
<rect x="20" y="0" width="1" height="1" fill="#35DB0F" />
<rect x="21" y="0" width="1" height="1" fill="#35DB0F" />
<rect x="22" y="0" width="1" height="1" fill="#35DB0F" />
<rect x="23" y="0" width="1" height="1" fill="#35DB0F" />
<rect x="24" y="0" width="1" height="1" fill="#35DB0F" />
<rect x="0" y="1" width="1" height="1" fill="#35DB0F" />
<rect x="1" y="1" width="1" height="1" fill="#35DB0F" />
<rect x="2" y="1" width="1" height="1" fill="#35DB0F" />
<rect x="3" y="1" width="1" height="1" fill="#35DB0F" />
<rect x="4" y="1" width="1" height="1" fill="#35DB0F" />
<rect x="5" y="1" width="1" height="1" fill="#35DB0F" />
<rect x="6" y="1" width="1" height="1" fill="#35DB0F" />
<rect x="7" y="1" width="1" height="1" fill="#35DB0F" />
<rect x="8" y="1" width="1" height="1" fill="#35DB0F" />
<rect x="9" y="1" width="1" height="1" fill="#35DB0F" />
<rect x="10" y="1" width="1" height="1" fill="#35DB0F" />
<rect x="11" y="1" width="1" height="1" fill="#35DB0F" />
<rect x="12" y="1" width="1" height="1" fill="#35DB0F" />
<rect x="13" y="1" width="1" height="1" fill="#35DB0F" />
<rect x="14" y="1" width="1" height="1" fill="#35DB0F" />
<rect x="15" y="1" width="1" height="1" fill="#35DB0F" />
<rect x="16" y="1" width="1" height="1" fill="#35DB0F" />
<rect x="17" y="1" width="1" height="1" fill="#35DB0F" />
<rect x="18" y="1" width="1" height="1" fill="#35DB0F" />
<rect x="19" y="1" width="1" height="1" fill="#35DB0F" />
<rect x="20" y="1" width="1" height="1" fill="#35DB0F" />
<rect x="21" y="1" width="1" height="1" fill="#35DB0F" />
<rect x="22" y="1" width="1" height="1" fill="#35DB0F" />
<rect x="23" y="1" width="1" height="1" fill="#35DB0F" />
<rect x="24" y="1" width="1" height="1" fill="#35DB0F" />
<rect x="0" y="2" width="1" height="1" fill="#35DB0F" />
<rect x="1" y="2" width="1" height="1" fill="#35DB0F" />
<rect x="2" y="2" width="1" height="1" fill="#35DB0F" />
<rect x="3" y="2" width="1" height="1" fill="#35DB0F" />
<rect x="4" y="2" width="1" height="1" fill="#35DB0F" />
<rect x="5" y="2" width="1" height="1" fill="#35DB0F" />
<rect x="6" y="2" width="1" height="1" fill="#35DB0F" />
<rect x="7" y="2" width="1" height="1" fill="#35DB0F" />
<rect x="8" y="2" width="1" height="1" fill="#35DB0F" />
<rect x="9" y="2" width="1" height="1" fill="#35DB0F" />
<rect x="10" y="2" width="1" height="1" fill="#35DB0F" />
<rect x="11" y="2" width="1" height="1" fill="#35DB0F" />
<rect x="12" y="2" width="1" height="1" fill="#35DB0F" />
<rect x="13" y="2" width="1" height="1" fill="#35DB0F" />
<rect x="14" y="2" width="1" height="1" fill="#35DB0F" />
<rect x="15" y="2" width="1" height="1" fill="#35DB0F" />
<rect x="16" y="2" width="1" height="1" fill="#35DB0F" />
<rect x="17" y="2" width="1" height="1" fill="#35DB0F" />
<rect x="18" y="2" width="1" height="1" fill="#35DB0F" />
<rect x="19" y="2" width="1" height="1" fill="#35DB0F" />
<rect x="20" y="2" width="1" height="1" fill="#35DB0F" />
<rect x="21" y="2" width="1" height="1" fill="#35DB0F" />
<rect x="22" y="2" width="1" height="1" fill="#35DB0F" />
<rect x="23" y="2" width="1" height="1" fill="#35DB0F" />
<rect x="24" y="2" width="1" height="1" fill="#35DB0F" />
<rect x="0" y="3" width="1" height="1" fill="#35DB0F" />
<rect x="1" y="3" width="1" height="1" fill="#35DB0F" />
<rect x="2" y="3" width="1" height="1" fill="#35DB0F" />
<rect x="3" y="3" width="1" height="1" fill="#35DB0F" />
<rect x="4" y="3" width="1" height="1" fill="#35DB0F" />
<rect x="5" y="3" width="1" height="1" fill="#35DB0F" />
<rect x="6" y="3" width="1" height="1" fill="#35DB0F" />
<rect x="7" y="3" width="1" height="1" fill="#35DB0F" />
<rect x="8" y="3" width="1" height="1" fill="#35DB0F" />
<rect x="9" y="3" width="1" height="1" fill="#35DB0F" />
<rect x="10" y="3" width="1" height="1" fill="#35DB0F" />
<rect x="11" y="3" width="1" height="1" fill="#35DB0F" />
<rect x="12" y="3" width="1" height="1" fill="#35DB0F" />
<rect x="13" y="3" width="1" height="1" fill="#35DB0F" />
<rect x="14" y="3" width="1" height="1" fill="#35DB0F" />
<rect x="15" y="3" width="1" height="1" fill="#35DB0F" />
<rect x="16" y="3" width="1" height="1" fill="#35DB0F" />
<rect x="17" y="3" width="1" height="1" fill="#35DB0F" />
<rect x="18" y="3" width="1" height="1" fill="#35DB0F" />
<rect x="19" y="3" width="1" height="1" fill="#35DB0F" />
<rect x="20" y="3" width="1" height="1" fill="#35DB0F" />
<rect x="21" y="3" width="1" height="1" fill="#35DB0F" />
<rect x="22" y="3" width="1" height="1" fill="#35DB0F" />
<rect x="23" y="3" width="1" height="1" fill="#35DB0F" />
<rect x="24" y="3" width="1" height="1" fill="#35DB0F" />
<rect x="0" y="4" width="1" height="1" fill="#35DB0F" />
<rect x="1" y="4" width="1" height="1" fill="#35DB0F" />
<rect x="2" y="4" width="1" height="1" fill="#35DB0F" />
<rect x="3" y="4" width="1" height="1" fill="#35DB0F" />
<rect x="4" y="4" width="1" height="1" fill="#35DB0F" />
<rect x="5" y="4" width="1" height="1" fill="#35DB0F" />
<rect x="6" y="4" width="1" height="1" fill="#35DB0F" />
<rect x="7" y="4" width="1" height="1" fill="#35DB0F" />
<rect x="8" y="4" width="1" height="1" fill="#35DB0F" />
<rect x="9" y="4" width="1" height="1" fill="#35DB0F" />
<rect x="10" y="4" width="1" height="1" fill="#35DB0F" />
<rect x="11" y="4" width="1" height="1" fill="#35DB0F" />
<rect x="12" y="4" width="1" height="1" fill="#35DB0F" />
<rect x="13" y="4" width="1" height="1" fill="#35DB0F" />
<rect x="14" y="4" width="1" height="1" fill="#35DB0F" />
<rect x="15" y="4" width="1" height="1" fill="#35DB0F" />
<rect x="16" y="4" width="1" height="1" fill="#35DB0F" />
<rect x="17" y="4" width="1" height="1" fill="#35DB0F" />
<rect x="18" y="4" width="1" height="1" fill="#35DB0F" />
<rect x="19" y="4" width="1" height="1" fill="#35DB0F" />
<rect x="20" y="4" width="1" height="1" fill="#35DB0F" />
<rect x="21" y="4" width="1" height="1" fill="#35DB0F" />
<rect x="22" y="4" width="1" height="1" fill="#35DB0F" />
<rect x="23" y="4" width="1" height="1" fill="#35DB0F" />
<rect x="24" y="4" width="1" height="1" fill="#35DB0F" />
<rect x="0" y="5" width="1" height="1" fill="#35DB0F" />
<rect x="1" y="5" width="1" height="1" fill="#35DB0F" />
<rect x="2" y="5" width="1" height="1" fill="#35DB0F" />
<rect x="3" y="5" width="1" height="1" fill="#35DB0F" />
<rect x="4" y="5" width="1" height="1" fill="#35DB0F" />
<rect x="5" y="5" width="1" height="1" fill="#35DB0F" />
<rect x="6" y="5" width="1" height="1" fill="#35DB0F" />
<rect x="7" y="5" width="1" height="1" fill="#35DB0F" />
<rect x="8" y="5" width="1" height="1" fill="#35DB0F" />
<rect x="9" y="5" width="1" height="1" fill="#35DB0F" />
<rect x="10" y="5" width="1" height="1" fill="#35DB0F" />
<rect x="11" y="5" width="1" height="1" fill="#35DB0F" />
<rect x="12" y="5" width="1" height="1" fill="#35DB0F" />
<rect x="13" y="5" width="1" height="1" fill="#35DB0F" />
<rect x="14" y="5" width="1" height="1" fill="#35DB0F" />
<rect x="15" y="5" width="1" height="1" fill="#35DB0F" />
<rect x="16" y="5" width="1" height="1" fill="#35DB0F" />
<rect x="17" y="5" width="1" height="1" fill="#35DB0F" />
<rect x="18" y="5" width="1" height="1" fill="#35DB0F" />
<rect x="19" y="5" width="1" height="1" fill="#35DB0F" />
<rect x="20" y="5" width="1" height="1" fill="#35DB0F" />
<rect x="21" y="5" width="1" height="1" fill="#35DB0F" />
<rect x="22" y="5" width="1" height="1" fill="#35DB0F" />
<rect x="23" y="5" width="1" height="1" fill="#35DB0F" />
<rect x="24" y="5" width="1" height="1" fill="#35DB0F" />
</svg>