<?xml version="1.0" encoding="UTF-8" ?>
<svg version="1.1" width="46" height="50" xmlns="http://www.w3.org/2000/svg" shape-rendering="crispEdges">
<rect x="11" y="5" width="1" height="1" fill="#35DB0F" />
<rect x="17" y="5" width="1" height="1" fill="#35DB0F" />
<rect x="39" y="5" width="1" height="1" fill="#35DB0F" />
<rect x="11" y="6" width="1" height="1" fill="#1FA800" />
<rect x="17" y="6" width="1" height="1" fill="#1FA800" />
<rect x="39" y="6" width="1" height="1" fill="#1FA800" />
<rect x="41" y="6" width="1" height="1" fill="#35DB0F" />
<rect x="2" y="7" width="1" height="1" fill="#35DB0F" />
<rect x="5" y="7" width="1" height="1" fill="#35DB0F" />
<rect x="11" y="7" width="1" height="1" fill="#136600" />
<rect x="17" y="7" width="1" height="1" fill="#136600" />
<rect x="19" y="7" width="1" height="1" fill="#35DB0F" />
<rect x="22" y="7" width="1" height="1" fill="#35DB0F" />
<rect x="39" y="7" width="1" height="1" fill="#136600" />
<rect x="41" y="7" width="1" height="1" fill="#1FA800" />
<rect x="44" y="7" width="1" height="1" fill="#35DB0F" />
<rect x="2" y="8" width="1" height="1" fill="#1FA800" />
<rect x="5" y="8" width="1" height="1" fill="#1FA800" />
<rect x="10" y="8" width="1" height="1" fill="#0E4D00" />
<rect x="13" y="8" width="1" height="1" fill="#35DB0F" />
<rect x="16" y="8" width="1" height="1" fill="#0E4D00" />
<rect x="19" y="8" width="1" height="1" fill="#1FA800" />
<rect x="22" y="8" width="1" height="1" fill="#1FA800" />
<rect x="25" y="8" width="1" height="1" fill="#35DB0F" />
<rect x="28" y="8" width="1" height="1" fill="#35DB0F" />
<rect x="34" y="8" width="1" height="1" fill="#35DB0F" />
<rect x="38" y="8" width="1" height="1" fill="#0E4D00" />
<rect x="41" y="8" width="1" height="1" fill="#136600" />
<rect x="44" y="8" width="1" height="1" fill="#1FA800" />
<rect x="2" y="9" width="1" height="1" fill="#136600" />
<rect x="5" y="9" width="1" height="1" fill="#136600" />
<rect x="7" y="9" width="1" height="1" fill="#35DB0F" />
<rect x="13" y="9" width="1" height="1" fill="#1FA800" />
<rect x="19" y="9" width="1" height="1" fill="#136600" />
<rect x="22" y="9" width="1" height="1" fill="#136600" />
<rect x="25" y="9" width="1" height="1" fill="#1FA800" />
<rect x="28" y="9" width="1" height="1" fill="#1FA800" />
<rect x="34" y="9" width="1" height="1" fill="#1FA800" />
<rect x="40" y="9" width="1" height="1" fill="#0E4D00" />
<rect x="44" y="9" width="1" height="1" fill="#136600" />
<rect x="1" y="10" width="1" height="1" fill="#0E4D00" />
<rect x="4" y="10" width="1" height="1" fill="#0E4D00" />
<rect x="7" y="10" width="1" height="1" fill="#1FA800" />
<rect x="10" y="10" width="1" height="1" fill="#35DB0F" />
<rect x="13" y="10" width="1" height="1" fill="#136600" />
<rect x="16" y="10" width="1" height="1" fill="#35DB0F" />
<rect x="18" y="10" width="1" height="1" fill="#0E4D00" />
<rect x="21" y="10" width="1" height="1" fill="#0E4D00" />
<rect x="25" y="10" width="1" height="1" fill="#136600" />
<rect x="28" y="10" width="1" height="1" fill="#136600" />
<rect x="31" y="10" width="1" height="1" fill="#35DB0F" />
<rect x="34" y="10" width="1" height="1" fill="#136600" />
<rect x="37" y="10" width="1" height="1" fill="#35DB0F" />
<rect x="43" y="10" width="1" height="1" fill="#0E4D00" />
<rect x="7" y="11" width="1" height="1" fill="#136600" />
<rect x="10" y="11" width="1" height="1" fill="#1FA800" />
<rect x="12" y="11" width="1" height="1" fill="#0E4D00" />
<rect x="16" y="11" width="1" height="1" fill="#1FA800" />
<rect x="19" y="11" width="1" height="1" fill="#35DB0F" />
<rect x="24" y="11" width="1" height="1" fill="#0E4D00" />
<rect x="27" y="11" width="1" height="1" fill="#0E4D00" />
<rect x="31" y="11" width="1" height="1" fill="#1FA800" />
<rect x="33" y="11" width="1" height="1" fill="#0E4D00" />
<rect x="37" y="11" width="1" height="1" fill="#1FA800" />
<rect x="40" y="11" width="1" height="1" fill="#35DB0F" />
<rect x="6" y="12" width="1" height="1" fill="#0E4D00" />
<rect x="10" y="12" width="1" height="1" fill="#136600" />
<rect x="16" y="12" width="1" height="1" fill="#136600" />
<rect x="19" y="12" width="1" height="1" fill="#1FA800" />
<rect x="22" y="12" width="1" height="1" fill="#35DB0F" />
<rect x="31" y="12" width="1" height="1" fill="#136600" />
<rect x="37" y="12" width="1" height="1" fill="#136600" />
<rect x="40" y="12" width="1" height="1" fill="#1FA800" />
<rect x="43" y="12" width="1" height="1" fill="#35DB0F" />
<rect x="9" y="13" width="1" height="1" fill="#0E4D00" />
<rect x="15" y="13" width="1" height="1" fill="#0E4D00" />
<rect x="19" y="13" width="1" height="1" fill="#136600" />
<rect x="22" y="13" width="1" height="1" fill="#1FA800" />
<rect x="27" y="13" width="1" height="1" fill="#35DB0F" />
<rect x="30" y="13" width="1" height="1" fill="#0E4D00" />
<rect x="36" y="13" width="1" height="1" fill="#0E4D00" />
<rect x="40" y="13" width="1" height="1" fill="#136600" />
<rect x="43" y="13" width="1" height="1" fill="#1FA800" />
<rect x="2" y="14" width="1" height="1" fill="#35DB0F" />
<rect x="5" y="14" width="1" height="1" fill="#35DB0F" />
<rect x="18" y="14" width="1" height="1" fill="#0E4D00" />
<rect x="22" y="14" width="1" height="1" fill="#136600" />
<rect x="27" y="14" width="1" height="1" fill="#1FA800" />
<rect x="39" y="14" width="1" height="1" fill="#0E4D00" />
<rect x="43" y="14" width="1" height="1" fill="#136600" />
<rect x="2" y="15" width="1" height="1" fill="#1FA800" />
<rect x="5" y="15" width="1" height="1" fill="#1FA800" />
<rect x="7" y="15" width="1" height="1" fill="#35DB0F" />
<rect x="11" y="15" width="1" height="1" fill="#35DB0F" />
<rect x="21" y="15" width="1" height="1" fill="#0E4D00" />
<rect x="27" y="15" width="1" height="1" fill="#136600" />
<rect x="29" y="15" width="1" height="1" fill="#35DB0F" />
<rect x="32" y="15" width="1" height="1" fill="#35DB0F" />
<rect x="42" y="15" width="1" height="1" fill="#0E4D00" />
<rect x="2" y="16" width="1" height="1" fill="#136600" />
<rect x="5" y="16" width="1" height="1" fill="#136600" />
<rect x="7" y="16" width="1" height="1" fill="#1FA800" />
<rect x="11" y="16" width="1" height="1" fill="#1FA800" />
<rect x="14" y="16" width="1" height="1" fill="#35DB0F" />
<rect x="17" y="16" width="1" height="1" fill="#35DB0F" />
<rect x="23" y="16" width="1" height="1" fill="#35DB0F" />
<rect x="26" y="16" width="1" height="1" fill="#0E4D00" />
<rect x="29" y="16" width="1" height="1" fill="#1FA800" />
<rect x="32" y="16" width="1" height="1" fill="#1FA800" />
<rect x="35" y="16" width="1" height="1" fill="#35DB0F" />
<rect x="38" y="16" width="1" height="1" fill="#35DB0F" />
<rect x="44" y="16" width="1" height="1" fill="#35DB0F" />
<rect x="7" y="17" width="1" height="1" fill="#136600" />
<rect x="11" y="17" width="1" height="1" fill="#136600" />
<rect x="14" y="17" width="1" height="1" fill="#1FA800" />
<rect x="17" y="17" width="1" height="1" fill="#1FA800" />
<rect x="23" y="17" width="1" height="1" fill="#1FA800" />
<rect x="29" y="17" width="1" height="1" fill="#136600" />
<rect x="32" y="17" width="1" height="1" fill="#136600" />
<rect x="35" y="17" width="1" height="1" fill="#1FA800" />
<rect x="38" y="17" width="1" height="1" fill="#1FA800" />
<rect x="44" y="17" width="1" height="1" fill="#1FA800" />
<rect x="6" y="18" width="1" height="1" fill="#0E4D00" />
<rect x="10" y="18" width="1" height="1" fill="#0E4D00" />
<rect x="14" y="18" width="1" height="1" fill="#136600" />
<rect x="17" y="18" width="1" height="1" fill="#136600" />
<rect x="19" y="18" width="1" height="1" fill="#35DB0F" />
<rect x="23" y="18" width="1" height="1" fill="#136600" />
<rect x="26" y="18" width="1" height="1" fill="#35DB0F" />
<rect x="28" y="18" width="1" height="1" fill="#0E4D00" />
<rect x="31" y="18" width="1" height="1" fill="#0E4D00" />
<rect x="35" y="18" width="1" height="1" fill="#136600" />
<rect x="38" y="18" width="1" height="1" fill="#136600" />
<rect x="40" y="18" width="1" height="1" fill="#35DB0F" />
<rect x="44" y="18" width="1" height="1" fill="#136600" />
<rect x="1" y="19" width="1" height="1" fill="#35DB0F" />
<rect x="8" y="19" width="1" height="1" fill="#35DB0F" />
<rect x="13" y="19" width="1" height="1" fill="#0E4D00" />
<rect x="16" y="19" width="1" height="1" fill="#0E4D00" />
<rect x="19" y="19" width="1" height="1" fill="#1FA800" />
<rect x="22" y="19" width="1" height="1" fill="#0E4D00" />
<rect x="26" y="19" width="1" height="1" fill="#1FA800" />
<rect x="34" y="19" width="1" height="1" fill="#0E4D00" />
<rect x="37" y="19" width="1" height="1" fill="#0E4D00" />
<rect x="40" y="19" width="1" height="1" fill="#1FA800" />
<rect x="43" y="19" width="1" height="1" fill="#0E4D00" />
<rect x="1" y="20" width="1" height="1" fill="#1FA800" />
<rect x="5" y="20" width="1" height="1" fill="#35DB0F" />
<rect x="8" y="20" width="1" height="1" fill="#1FA800" />
<rect x="19" y="20" width="1" height="1" fill="#136600" />
<rect x="26" y="20" width="1" height="1" fill="#136600" />
<rect x="29" y="20" width="1" height="1" fill="#35DB0F" />
<rect x="40" y="20" width="1" height="1" fill="#136600" />
<rect x="1" y="21" width="1" height="1" fill="#136600" />
<rect x="5" y="21" width="1" height="1" fill="#1FA800" />
<rect x="8" y="21" width="1" height="1" fill="#136600" />
<rect x="12" y="21" width="1" height="1" fill="#35DB0F" />
<rect x="18" y="21" width="1" height="1" fill="#0E4D00" />
<rect x="21" y="21" width="1" height="1" fill="#35DB0F" />
<rect x="25" y="21" width="1" height="1" fill="#0E4D00" />
<rect x="29" y="21" width="1" height="1" fill="#1FA800" />
<rect x="33" y="21" width="1" height="1" fill="#35DB0F" />
<rect x="39" y="21" width="1" height="1" fill="#0E4D00" />
<rect x="42" y="21" width="1" height="1" fill="#35DB0F" />
<rect x="0" y="22" width="1" height="1" fill="#0E4D00" />
<rect x="5" y="22" width="1" height="1" fill="#136600" />
<rect x="7" y="22" width="1" height="1" fill="#0E4D00" />
<rect x="12" y="22" width="1" height="1" fill="#1FA800" />
<rect x="21" y="22" width="1" height="1" fill="#1FA800" />
<rect x="23" y="22" width="1" height="1" fill="#35DB0F" />
<rect x="29" y="22" width="1" height="1" fill="#136600" />
<rect x="33" y="22" width="1" height="1" fill="#1FA800" />
<rect x="42" y="22" width="1" height="1" fill="#1FA800" />
<rect x="44" y="22" width="1" height="1" fill="#35DB0F" />
<rect x="2" y="23" width="1" height="1" fill="#35DB0F" />
<rect x="4" y="23" width="1" height="1" fill="#0E4D00" />
<rect x="9" y="23" width="1" height="1" fill="#35DB0F" />
<rect x="12" y="23" width="1" height="1" fill="#136600" />
<rect x="14" y="23" width="1" height="1" fill="#35DB0F" />
<rect x="17" y="23" width="1" height="1" fill="#35DB0F" />
<rect x="21" y="23" width="1" height="1" fill="#136600" />
<rect x="23" y="23" width="1" height="1" fill="#1FA800" />
<rect x="25" y="23" width="1" height="1" fill="#35DB0F" />
<rect x="28" y="23" width="1" height="1" fill="#0E4D00" />
<rect x="33" y="23" width="1" height="1" fill="#136600" />
<rect x="35" y="23" width="1" height="1" fill="#35DB0F" />
<rect x="38" y="23" width="1" height="1" fill="#35DB0F" />
<rect x="42" y="23" width="1" height="1" fill="#136600" />
<rect x="44" y="23" width="1" height="1" fill="#1FA800" />
<rect x="2" y="24" width="1" height="1" fill="#1FA800" />
<rect x="9" y="24" width="1" height="1" fill="#1FA800" />
<rect x="11" y="24" width="1" height="1" fill="#0E4D00" />
<rect x="14" y="24" width="1" height="1" fill="#1FA800" />
<rect x="17" y="24" width="1" height="1" fill="#1FA800" />
<rect x="20" y="24" width="1" height="1" fill="#0E4D00" />
<rect x="23" y="24" width="1" height="1" fill="#136600" />
<rect x="25" y="24" width="1" height="1" fill="#1FA800" />
<rect x="30" y="24" width="1" height="1" fill="#35DB0F" />
<rect x="32" y="24" width="1" height="1" fill="#0E4D00" />
<rect x="35" y="24" width="1" height="1" fill="#1FA800" />
<rect x="38" y="24" width="1" height="1" fill="#1FA800" />
<rect x="41" y="24" width="1" height="1" fill="#0E4D00" />
<rect x="44" y="24" width="1" height="1" fill="#136600" />
<rect x="2" y="25" width="1" height="1" fill="#136600" />
<rect x="5" y="25" width="1" height="1" fill="#35DB0F" />
<rect x="9" y="25" width="1" height="1" fill="#136600" />
<rect x="14" y="25" width="1" height="1" fill="#136600" />
<rect x="17" y="25" width="1" height="1" fill="#136600" />
<rect x="22" y="25" width="1" height="1" fill="#0E4D00" />
<rect x="25" y="25" width="1" height="1" fill="#136600" />
<rect x="27" y="25" width="1" height="1" fill="#35DB0F" />
<rect x="30" y="25" width="1" height="1" fill="#1FA800" />
<rect x="35" y="25" width="1" height="1" fill="#136600" />
<rect x="38" y="25" width="1" height="1" fill="#136600" />
<rect x="43" y="25" width="1" height="1" fill="#0E4D00" />
<rect x="1" y="26" width="1" height="1" fill="#0E4D00" />
<rect x="5" y="26" width="1" height="1" fill="#1FA800" />
<rect x="8" y="26" width="1" height="1" fill="#0E4D00" />
<rect x="13" y="26" width="1" height="1" fill="#0E4D00" />
<rect x="16" y="26" width="1" height="1" fill="#0E4D00" />
<rect x="24" y="26" width="1" height="1" fill="#0E4D00" />
<rect x="27" y="26" width="1" height="1" fill="#1FA800" />
<rect x="30" y="26" width="1" height="1" fill="#136600" />
<rect x="32" y="26" width="1" height="1" fill="#35DB0F" />
<rect x="34" y="26" width="1" height="1" fill="#0E4D00" />
<rect x="37" y="26" width="1" height="1" fill="#0E4D00" />
<rect x="5" y="27" width="1" height="1" fill="#136600" />
<rect x="27" y="27" width="1" height="1" fill="#136600" />
<rect x="29" y="27" width="1" height="1" fill="#0E4D00" />
<rect x="32" y="27" width="1" height="1" fill="#1FA800" />
<rect x="4" y="28" width="1" height="1" fill="#0E4D00" />
<rect x="11" y="28" width="1" height="1" fill="#35DB0F" />
<rect x="17" y="28" width="1" height="1" fill="#35DB0F" />
<rect x="26" y="28" width="1" height="1" fill="#0E4D00" />
<rect x="32" y="28" width="1" height="1" fill="#136600" />
<rect x="39" y="28" width="1" height="1" fill="#35DB0F" />
<rect x="11" y="29" width="1" height="1" fill="#1FA800" />
<rect x="17" y="29" width="1" height="1" fill="#1FA800" />
<rect x="31" y="29" width="1" height="1" fill="#0E4D00" />
<rect x="39" y="29" width="1" height="1" fill="#1FA800" />
<rect x="41" y="29" width="1" height="1" fill="#35DB0F" />
<rect x="2" y="30" width="1" height="1" fill="#35DB0F" />
<rect x="5" y="30" width="1" height="1" fill="#35DB0F" />
<rect x="11" y="30" width="1" height="1" fill="#136600" />
<rect x="17" y="30" width="1" height="1" fill="#136600" />
<rect x="19" y="30" width="1" height="1" fill="#35DB0F" />
<rect x="22" y="30" width="1" height="1" fill="#35DB0F" />
<rect x="39" y="30" width="1" height="1" fill="#136600" />
<rect x="41" y="30" width="1" height="1" fill="#1FA800" />
<rect x="44" y="30" width="1" height="1" fill="#35DB0F" />
<rect x="2" y="31" width="1" height="1" fill="#1FA800" />
<rect x="5" y="31" width="1" height="1" fill="#1FA800" />
<rect x="10" y="31" width="1" height="1" fill="#0E4D00" />
<rect x="13" y="31" width="1" height="1" fill="#35DB0F" />
<rect x="16" y="31" width="1" height="1" fill="#0E4D00" />
<rect x="19" y="31" width="1" height="1" fill="#1FA800" />
<rect x="22" y="31" width="1" height="1" fill="#1FA800" />
<rect x="25" y="31" width="1" height="1" fill="#35DB0F" />
<rect x="28" y="31" width="1" height="1" fill="#35DB0F" />
<rect x="34" y="31" width="1" height="1" fill="#35DB0F" />
<rect x="38" y="31" width="1" height="1" fill="#0E4D00" />
<rect x="41" y="31" width="1" height="1" fill="#136600" />
<rect x="44" y="31" width="1" height="1" fill="#1FA800" />
<rect x="2" y="32" width="1" height="1" fill="#136600" />
<rect x="5" y="32" width="1" height="1" fill="#136600" />
<rect x="7" y="32" width="1" height="1" fill="#35DB0F" />
<rect x="13" y="32" width="1" height="1" fill="#1FA800" />
<rect x="19" y="32" width="1" height="1" fill="#136600" />
<rect x="22" y="32" width="1" height="1" fill="#136600" />
<rect x="25" y="32" width="1" height="1" fill="#1FA800" />
<rect x="28" y="32" width="1" height="1" fill="#1FA800" />
<rect x="34" y="32" width="1" height="1" fill="#1FA800" />
<rect x="40" y="32" width="1" height="1" fill="#0E4D00" />
<rect x="44" y="32" width="1" height="1" fill="#136600" />
<rect x="1" y="33" width="1" height="1" fill="#0E4D00" />
<rect x="4" y="33" width="1" height="1" fill="#0E4D00" />
<rect x="7" y="33" width="1" height="1" fill="#1FA800" />
<rect x="10" y="33" width="1" height="1" fill="#35DB0F" />
<rect x="13" y="33" width="1" height="1" fill="#136600" />
<rect x="16" y="33" width="1" height="1" fill="#35DB0F" />
<rect x="18" y="33" width="1" height="1" fill="#0E4D00" />
<rect x="21" y="33" width="1" height="1" fill="#0E4D00" />
<rect x="25" y="33" width="1" height="1" fill="#136600" />
<rect x="28" y="33" width="1" height="1" fill="#136600" />
<rect x="31" y="33" width="1" height="1" fill="#35DB0F" />
<rect x="34" y="33" width="1" height="1" fill="#136600" />
<rect x="37" y="33" width="1" height="1" fill="#35DB0F" />
<rect x="43" y="33" width="1" height="1" fill="#0E4D00" />
<rect x="7" y="34" width="1" height="1" fill="#136600" />
<rect x="10" y="34" width="1" height="1" fill="#1FA800" />
<rect x="12" y="34" width="1" height="1" fill="#0E4D00" />
<rect x="16" y="34" width="1" height="1" fill="#1FA800" />
<rect x="19" y="34" width="1" height="1" fill="#35DB0F" />
<rect x="24" y="34" width="1" height="1" fill="#0E4D00" />
<rect x="27" y="34" width="1" height="1" fill="#0E4D00" />
<rect x="31" y="34" width="1" height="1" fill="#1FA800" />
<rect x="33" y="34" width="1" height="1" fill="#0E4D00" />
<rect x="37" y="34" width="1" height="1" fill="#1FA800" />
<rect x="40" y="34" width="1" height="1" fill="#35DB0F" />
<rect x="6" y="35" width="1" height="1" fill="#0E4D00" />
<rect x="10" y="35" width="1" height="1" fill="#136600" />
<rect x="16" y="35" width="1" height="1" fill="#136600" />
<rect x="19" y="35" width="1" height="1" fill="#1FA800" />
<rect x="22" y="35" width="1" height="1" fill="#35DB0F" />
<rect x="31" y="35" width="1" height="1" fill="#136600" />
<rect x="37" y="35" width="1" height="1" fill="#136600" />
<rect x="40" y="35" width="1" height="1" fill="#1FA800" />
<rect x="43" y="35" width="1" height="1" fill="#35DB0F" />
<rect x="9" y="36" width="1" height="1" fill="#0E4D00" />
<rect x="15" y="36" width="1" height="1" fill="#0E4D00" />
<rect x="19" y="36" width="1" height="1" fill="#136600" />
<rect x="22" y="36" width="1" height="1" fill="#1FA800" />
<rect x="27" y="36" width="1" height="1" fill="#35DB0F" />
<rect x="30" y="36" width="1" height="1" fill="#0E4D00" />
<rect x="36" y="36" width="1" height="1" fill="#0E4D00" />
<rect x="40" y="36" width="1" height="1" fill="#136600" />
<rect x="43" y="36" width="1" height="1" fill="#1FA800" />
<rect x="2" y="37" width="1" height="1" fill="#35DB0F" />
<rect x="5" y="37" width="1" height="1" fill="#35DB0F" />
<rect x="18" y="37" width="1" height="1" fill="#0E4D00" />
<rect x="22" y="37" width="1" height="1" fill="#136600" />
<rect x="27" y="37" width="1" height="1" fill="#1FA800" />
<rect x="39" y="37" width="1" height="1" fill="#0E4D00" />
<rect x="43" y="37" width="1" height="1" fill="#136600" />
<rect x="2" y="38" width="1" height="1" fill="#1FA800" />
<rect x="5" y="38" width="1" height="1" fill="#1FA800" />
<rect x="7" y="38" width="1" height="1" fill="#35DB0F" />
<rect x="11" y="38" width="1" height="1" fill="#35DB0F" />
<rect x="21" y="38" width="1" height="1" fill="#0E4D00" />
<rect x="27" y="38" width="1" height="1" fill="#136600" />
<rect x="29" y="38" width="1" height="1" fill="#35DB0F" />
<rect x="32" y="38" width="1" height="1" fill="#35DB0F" />
<rect x="42" y="38" width="1" height="1" fill="#0E4D00" />
<rect x="2" y="39" width="1" height="1" fill="#136600" />
<rect x="5" y="39" width="1" height="1" fill="#136600" />
<rect x="7" y="39" width="1" height="1" fill="#1FA800" />
<rect x="11" y="39" width="1" height="1" fill="#1FA800" />
<rect x="14" y="39" width="1" height="1" fill="#35DB0F" />
<rect x="17" y="39" width="1" height="1" fill="#35DB0F" />
<rect x="23" y="39" width="1" height="1" fill="#35DB0F" />
<rect x="26" y="39" width="1" height="1" fill="#0E4D00" />
<rect x="29" y="39" width="1" height="1" fill="#1FA800" />
<rect x="32" y="39" width="1" height="1" fill="#1FA800" />
<rect x="35" y="39" width="1" height="1" fill="#35DB0F" />
<rect x="38" y="39" width="1" height="1" fill="#35DB0F" />
<rect x="44" y="39" width="1" height="1" fill="#35DB0F" />
<rect x="7" y="40" width="1" height="1" fill="#136600" />
<rect x="11" y="40" width="1" height="1" fill="#136600" />
<rect x="14" y="40" width="1" height="1" fill="#1FA800" />
<rect x="17" y="40" width="1" height="1" fill="#1FA800" />
<rect x="23" y="40" width="1" height="1" fill="#1FA800" />
<rect x="29" y="40" width="1" height="1" fill="#136600" />
<rect x="32" y="40" width="1" height="1" fill="#136600" />
<rect x="35" y="40" width="1" height="1" fill="#1FA800" />
<rect x="38" y="40" width="1" height="1" fill="#1FA800" />
<rect x="44" y="40" width="1" height="1" fill="#1FA800" />
<rect x="6" y="41" width="1" height="1" fill="#0E4D00" />
<rect x="10" y="41" width="1" height="1" fill="#0E4D00" />
<rect x="14" y="41" width="1" height="1" fill="#136600" />
<rect x="17" y="41" width="1" height="1" fill="#136600" />
<rect x="19" y="41" width="1" height="1" fill="#35DB0F" />
<rect x="23" y="41" width="1" height="1" fill="#136600" />
<rect x="26" y="41" width="1" height="1" fill="#35DB0F" />
<rect x="28" y="41" width="1" height="1" fill="#0E4D00" />
<rect x="31" y="41" width="1" height="1" fill="#0E4D00" />
<rect x="35" y="41" width="1" height="1" fill="#136600" />
<rect x="38" y="41" width="1" height="1" fill="#136600" />
<rect x="40" y="41" width="1" height="1" fill="#35DB0F" />
<rect x="44" y="41" width="1" height="1" fill="#136600" />
<rect x="1" y="42" width="1" height="1" fill="#35DB0F" />
<rect x="8" y="42" width="1" height="1" fill="#35DB0F" />
<rect x="13" y="42" width="1" height="1" fill="#0E4D00" />
<rect x="16" y="42" width="1" height="1" fill="#0E4D00" />
<rect x="19" y="42" width="1" height="1" fill="#1FA800" />
<rect x="22" y="42" width="1" height="1" fill="#0E4D00" />
<rect x="26" y="42" width="1" height="1" fill="#1FA800" />
<rect x="34" y="42" width="1" height="1" fill="#0E4D00" />
<rect x="37" y="42" width="1" height="1" fill="#0E4D00" />
<rect x="40" y="42" width="1" height="1" fill="#1FA800" />
<rect x="43" y="42" width="1" height="1" fill="#0E4D00" />
<rect x="1" y="43" width="1" height="1" fill="#1FA800" />
<rect x="5" y="43" width="1" height="1" fill="#35DB0F" />
<rect x="8" y="43" width="1" height="1" fill="#1FA800" />
<rect x="19" y="43" width="1" height="1" fill="#136600" />
<rect x="26" y="43" width="1" height="1" fill="#136600" />
<rect x="29" y="43" width="1" height="1" fill="#35DB0F" />
<rect x="40" y="43" width="1" height="1" fill="#136600" />
<rect x="1" y="44" width="1" height="1" fill="#136600" />
<rect x="5" y="44" width="1" height="1" fill="#1FA800" />
<rect x="8" y="44" width="1" height="1" fill="#136600" />
<rect x="12" y="44" width="1" height="1" fill="#35DB0F" />
<rect x="18" y="44" width="1" height="1" fill="#0E4D00" />
<rect x="21" y="44" width="1" height="1" fill="#35DB0F" />
<rect x="25" y="44" width="1" height="1" fill="#0E4D00" />
<rect x="29" y="44" width="1" height="1" fill="#1FA800" />
<rect x="33" y="44" width="1" height="1" fill="#35DB0F" />
<rect x="39" y="44" width="1" height="1" fill="#0E4D00" />
<rect x="42" y="44" width="1" height="1" fill="#35DB0F" />
<rect x="0" y="45" width="1" height="1" fill="#0E4D00" />
<rect x="5" y="45" width="1" height="1" fill="#136600" />
<rect x="7" y="45" width="1" height="1" fill="#0E4D00" />
<rect x="12" y="45" width="1" height="1" fill="#1FA800" />
<rect x="21" y="45" width="1" height="1" fill="#1FA800" />
<rect x="23" y="45" width="1" height="1" fill="#35DB0F" />
<rect x="29" y="45" width="1" height="1" fill="#136600" />
<rect x="33" y="45" width="1" height="1" fill="#1FA800" />
<rect x="42" y="45" width="1" height="1" fill="#1FA800" />
<rect x="44" y="45" width="1" height="1" fill="#35DB0F" />
<rect x="2" y="46" width="1" height="1" fill="#35DB0F" />
<rect x="4" y="46" width="1" height="1" fill="#0E4D00" />
<rect x="9" y="46" width="1" height="1" fill="#35DB0F" />
<rect x="12" y="46" width="1" height="1" fill="#136600" />
<rect x="14" y="46" width="1" height="1" fill="#35DB0F" />
<rect x="17" y="46" width="1" height="1" fill="#35DB0F" />
<rect x="21" y="46" width="1" height="1" fill="#136600" />
<rect x="23" y="46" width="1" height="1" fill="#1FA800" />
<rect x="25" y="46" width="1" height="1" fill="#35DB0F" />
<rect x="28" y="46" width="1" height="1" fill="#0E4D00" />
<rect x="33" y="46" width="1" height="1" fill="#136600" />
<rect x="35" y="46" width="1" height="1" fill="#35DB0F" />
<rect x="38" y="46" width="1" height="1" fill="#35DB0F" />
<rect x="42" y="46" width="1" height="1" fill="#136600" />
<rect x="44" y="46" width="1" height="1" fill="#1FA800" />
<rect x="2" y="47" width="1" height="1" fill="#1FA800" />
<rect x="9" y="47" width="1" height="1" fill="#1FA800" />
<rect x="11" y="47" width="1" height="1" fill="#0E4D00" />
<rect x="14" y="47" width="1" height="1" fill="#1FA800" />
<rect x="17" y="47" width="1" height="1" fill="#1FA800" />
<rect x="20" y="47" width="1" height="1" fill="#0E4D00" />
<rect x="23" y="47" width="1" height="1" fill="#136600" />
<rect x="25" y="47" width="1" height="1" fill="#1FA800" />
<rect x="32" y="47" width="1" height="1" fill="#0E4D00" />
<rect x="35" y="47" width="1" height="1" fill="#1FA800" />
<rect x="38" y="47" width="1" height="1" fill="#1FA800" />
<rect x="41" y="47" width="1" height="1" fill="#0E4D00" />
<rect x="44" y="47" width="1" height="1" fill="#136600" />
<rect x="2" y="48" width="1" height="1" fill="#136600" />
<rect x="9" y="48" width="1" height="1" fill="#136600" />
<rect x="14" y="48" width="1" height="1" fill="#136600" />
<rect x="17" y="48" width="1" height="1" fill="#136600" />
<rect x="22" y="48" width="1" height="1" fill="#0E4D00" />
<rect x="25" y="48" width="1" height="1" fill="#136600" />
<rect x="35" y="48" width="1" height="1" fill="#136600" />
<rect x="38" y="48" width="1" height="1" fill="#136600" />
<rect x="43" y="48" width="1" height="1" fill="#0E4D00" />
<rect x="1" y="49" width="1" height="1" fill="#0E4D00" />
<rect x="8" y="49" width="1" height="1" fill="#0E4D00" />
<rect x="13" y="49" width="1" height="1" fill="#0E4D00" />
<rect x="16" y="49" width="1" height="1" fill="#0E4D00" />
<rect x="24" y="49" width="1" height="1" fill="#0E4D00" />
<rect x="34" y="49" width="1" height="1" fill="#0E4D00" />
<rect x="37" y="49" width="1" height="1" fill="#0E4D00" />
</svg>